<?xml version="1.0" encoding="iso-8859-1"?>
<!-- Generator: Adobe Illustrator 16.0.0, SVG Export Plug-In . SVG Version: 6.00 Build 0)  -->
<!DOCTYPE svg PUBLIC "-//W3C//DTD SVG 1.1//EN" "http://www.w3.org/Graphics/SVG/1.1/DTD/svg11.dtd">
<svg xmlns="http://www.w3.org/2000/svg" xmlns:xlink="http://www.w3.org/1999/xlink" version="1.1" id="Capa_1" x="0px" y="0px" width="512px" height="512px" viewBox="0 0 612.007 612.006" style="enable-background:new 0 0 612.007 612.006;" xml:space="preserve">
<g>
	<path d="M587.572,186.898C555.307,111.659,500.512,56.836,425.287,24.57C387.418,8.366,347.992,0.157,306.503,0.157   S225.289,8.438,187.384,24.57c-75.86,32.337-130.969,86.946-163.292,162.328C7.895,224.661,0,264.136,0,305.682   c0,41.475,7.895,81.378,24.092,119.069c32.323,75.382,87.432,130.276,163.292,162.685c37.905,16.133,77.63,24.414,119.119,24.414   s80.915-8.21,118.791-24.414c75.218-32.337,130.02-87.445,162.285-162.685c16.247-37.834,24.428-77.595,24.428-119.069   C612,264.136,603.826,224.732,587.572,186.898z M306.503,36.991c40.489,0,78.637,8.352,114.436,25.413l-42.495,81.664   c-23.757-10.065-47.514-15.062-71.941-15.062c-26.098,0-50.526,5.354-73.612,15.705l-42.495-81.664   C227.538,45.7,266.014,36.991,306.503,36.991z M62.24,419.398c-16.733-34.765-25.099-72.599-25.099-113.716   c0-39.833,8.031-77.31,24.428-112.431l81.643,42.474c-9.701,23.414-14.391,46.828-14.391,69.957   c0,24.771,5.019,48.47,15.055,71.241L62.24,419.398z M306.503,575.015c-39.818,0-77.966-8.709-115.107-26.126l42.16-81.593   C255.978,477.647,280.07,483,306.503,483c24.763,0,48.52-4.996,71.27-15.062l42.495,81.664   C385.133,566.664,346.992,575.015,306.503,575.015z M404.878,405.049c-27.104,27.411-59.898,41.117-98.375,41.117   c-38.483,0-71.777-13.491-99.381-41.117c-27.604-27.626-41.161-60.891-41.161-99.367c0-38.476,13.635-71.384,41.161-98.725   c27.69-27.554,60.898-41.189,99.381-41.189c38.483,0,71.192,13.849,98.375,41.189c27.354,27.483,41.16,60.249,41.16,98.725   C446.038,344.159,432.318,377.281,404.878,405.049z M549.767,420.112l-81.642-42.475c10.036-22.771,15.055-46.899,15.055-71.955   c0-24.414-4.683-47.542-14.391-69.957l81.642-43.188c16.397,36.192,24.428,73.954,24.428,113.144   C574.858,346.514,566.492,384.633,549.767,420.112z" fill="#e85d5d"/>
</g>
<g>
</g>
<g>
</g>
<g>
</g>
<g>
</g>
<g>
</g>
<g>
</g>
<g>
</g>
<g>
</g>
<g>
</g>
<g>
</g>
<g>
</g>
<g>
</g>
<g>
</g>
<g>
</g>
<g>
</g>
</svg>
